<mxfile host="app.diagrams.net" agent="Mozilla/5.0 (Windows NT 10.0; Win64; x64) AppleWebKit/537.36 (KHTML, like Gecko) Chrome/140.0.0.0 Safari/537.36 Edg/140.0.0.0" version="28.2.5">
  <diagram name="Trang-1" id="Mh-Wuua1Y0WTV14DLm0j">
    <mxGraphModel dx="1388" dy="972" grid="0" gridSize="10" guides="1" tooltips="1" connect="1" arrows="1" fold="1" page="0" pageScale="1" pageWidth="827" pageHeight="1169" math="0" shadow="0">
      <root>
        <mxCell id="0" />
        <mxCell id="1" parent="0" />
        <mxCell id="RkNvBVMgayiWRNWPBS3Q-6" style="edgeStyle=none;curved=1;rounded=0;orthogonalLoop=1;jettySize=auto;html=1;fontSize=12;startSize=8;endSize=8;" parent="1" source="RkNvBVMgayiWRNWPBS3Q-1" target="RkNvBVMgayiWRNWPBS3Q-2" edge="1">
          <mxGeometry relative="1" as="geometry" />
        </mxCell>
        <mxCell id="RkNvBVMgayiWRNWPBS3Q-1" value="0" style="ellipse;whiteSpace=wrap;html=1;aspect=fixed;" parent="1" vertex="1">
          <mxGeometry x="-8" y="-209" width="80" height="80" as="geometry" />
        </mxCell>
        <mxCell id="RkNvBVMgayiWRNWPBS3Q-4" value="" style="edgeStyle=none;curved=1;rounded=0;orthogonalLoop=1;jettySize=auto;html=1;fontSize=12;startSize=8;endSize=8;" parent="1" source="RkNvBVMgayiWRNWPBS3Q-2" target="RkNvBVMgayiWRNWPBS3Q-3" edge="1">
          <mxGeometry relative="1" as="geometry" />
        </mxCell>
        <mxCell id="RkNvBVMgayiWRNWPBS3Q-2" value="1" style="ellipse;whiteSpace=wrap;html=1;aspect=fixed;" parent="1" vertex="1">
          <mxGeometry x="-8" y="-77" width="80" height="80" as="geometry" />
        </mxCell>
        <mxCell id="RkNvBVMgayiWRNWPBS3Q-3" value="3" style="ellipse;whiteSpace=wrap;html=1;aspect=fixed;" parent="1" vertex="1">
          <mxGeometry x="-8" y="62" width="80" height="80" as="geometry" />
        </mxCell>
        <mxCell id="RkNvBVMgayiWRNWPBS3Q-5" value="UCLN(a,b)" style="text;html=1;align=center;verticalAlign=middle;whiteSpace=wrap;rounded=0;" parent="1" vertex="1">
          <mxGeometry x="79" y="-184" width="60" height="30" as="geometry" />
        </mxCell>
        <mxCell id="RkNvBVMgayiWRNWPBS3Q-7" value="If" style="text;html=1;align=center;verticalAlign=middle;whiteSpace=wrap;rounded=0;" parent="1" vertex="1">
          <mxGeometry x="2" y="-71" width="60" height="30" as="geometry" />
        </mxCell>
        <mxCell id="RkNvBVMgayiWRNWPBS3Q-8" value="2&lt;div&gt;return a&lt;/div&gt;" style="ellipse;whiteSpace=wrap;html=1;aspect=fixed;" parent="1" vertex="1">
          <mxGeometry x="163" y="17" width="80" height="80" as="geometry" />
        </mxCell>
        <mxCell id="RkNvBVMgayiWRNWPBS3Q-9" value="" style="endArrow=classic;html=1;rounded=0;fontSize=12;startSize=8;endSize=8;curved=1;entryX=0.5;entryY=0;entryDx=0;entryDy=0;exitX=1;exitY=0.5;exitDx=0;exitDy=0;" parent="1" source="RkNvBVMgayiWRNWPBS3Q-2" target="RkNvBVMgayiWRNWPBS3Q-8" edge="1">
          <mxGeometry width="50" height="50" relative="1" as="geometry">
            <mxPoint x="175" y="122" as="sourcePoint" />
            <mxPoint x="225" y="72" as="targetPoint" />
          </mxGeometry>
        </mxCell>
        <mxCell id="RkNvBVMgayiWRNWPBS3Q-10" value="a==b" style="text;html=1;align=center;verticalAlign=middle;whiteSpace=wrap;rounded=0;" parent="1" vertex="1">
          <mxGeometry x="117" y="-52" width="60" height="30" as="geometry" />
        </mxCell>
        <mxCell id="RkNvBVMgayiWRNWPBS3Q-11" value="a!=b" style="text;html=1;align=center;verticalAlign=middle;whiteSpace=wrap;rounded=0;" parent="1" vertex="1">
          <mxGeometry x="49" y="17" width="60" height="30" as="geometry" />
        </mxCell>
        <mxCell id="RkNvBVMgayiWRNWPBS3Q-13" value="if - else" style="text;html=1;align=center;verticalAlign=middle;whiteSpace=wrap;rounded=0;" parent="1" vertex="1">
          <mxGeometry x="72" y="81" width="60" height="30" as="geometry" />
        </mxCell>
        <mxCell id="RkNvBVMgayiWRNWPBS3Q-14" value="4" style="ellipse;whiteSpace=wrap;html=1;aspect=fixed;" parent="1" vertex="1">
          <mxGeometry x="-88" y="172" width="80" height="80" as="geometry" />
        </mxCell>
        <mxCell id="RkNvBVMgayiWRNWPBS3Q-15" value="5" style="ellipse;whiteSpace=wrap;html=1;aspect=fixed;" parent="1" vertex="1">
          <mxGeometry x="76" y="172" width="80" height="80" as="geometry" />
        </mxCell>
        <mxCell id="RkNvBVMgayiWRNWPBS3Q-16" value="" style="endArrow=classic;html=1;rounded=0;fontSize=12;startSize=8;endSize=8;curved=1;entryX=0.5;entryY=0;entryDx=0;entryDy=0;exitX=0.5;exitY=1;exitDx=0;exitDy=0;" parent="1" source="RkNvBVMgayiWRNWPBS3Q-3" target="RkNvBVMgayiWRNWPBS3Q-14" edge="1">
          <mxGeometry width="50" height="50" relative="1" as="geometry">
            <mxPoint x="16" y="242" as="sourcePoint" />
            <mxPoint x="73" y="264" as="targetPoint" />
          </mxGeometry>
        </mxCell>
        <mxCell id="RkNvBVMgayiWRNWPBS3Q-17" value="" style="endArrow=classic;html=1;rounded=0;fontSize=12;startSize=8;endSize=8;curved=1;entryX=0.5;entryY=0;entryDx=0;entryDy=0;exitX=0.5;exitY=1;exitDx=0;exitDy=0;" parent="1" source="RkNvBVMgayiWRNWPBS3Q-3" target="RkNvBVMgayiWRNWPBS3Q-15" edge="1">
          <mxGeometry width="50" height="50" relative="1" as="geometry">
            <mxPoint x="50" y="168" as="sourcePoint" />
            <mxPoint x="107" y="190" as="targetPoint" />
          </mxGeometry>
        </mxCell>
        <mxCell id="RkNvBVMgayiWRNWPBS3Q-18" value="6" style="ellipse;whiteSpace=wrap;html=1;aspect=fixed;" parent="1" vertex="1">
          <mxGeometry x="-4" y="284" width="80" height="80" as="geometry" />
        </mxCell>
        <mxCell id="RkNvBVMgayiWRNWPBS3Q-21" value="" style="endArrow=classic;html=1;rounded=0;fontSize=12;startSize=8;endSize=8;curved=1;entryX=0.5;entryY=0;entryDx=0;entryDy=0;exitX=0.5;exitY=1;exitDx=0;exitDy=0;" parent="1" source="RkNvBVMgayiWRNWPBS3Q-14" target="RkNvBVMgayiWRNWPBS3Q-18" edge="1">
          <mxGeometry width="50" height="50" relative="1" as="geometry">
            <mxPoint x="175" y="122" as="sourcePoint" />
            <mxPoint x="225" y="72" as="targetPoint" />
          </mxGeometry>
        </mxCell>
        <mxCell id="RkNvBVMgayiWRNWPBS3Q-22" value="" style="endArrow=classic;html=1;rounded=0;fontSize=12;startSize=8;endSize=8;curved=1;entryX=0.61;entryY=0.025;entryDx=0;entryDy=0;exitX=0.5;exitY=1;exitDx=0;exitDy=0;entryPerimeter=0;" parent="1" source="RkNvBVMgayiWRNWPBS3Q-15" target="RkNvBVMgayiWRNWPBS3Q-18" edge="1">
          <mxGeometry width="50" height="50" relative="1" as="geometry">
            <mxPoint x="95" y="274" as="sourcePoint" />
            <mxPoint x="175" y="293" as="targetPoint" />
          </mxGeometry>
        </mxCell>
        <mxCell id="RkNvBVMgayiWRNWPBS3Q-23" value="&lt;span style=&quot;color: rgb(0, 0, 0); font-family: Helvetica; font-size: 12px; font-style: normal; font-variant-ligatures: normal; font-variant-caps: normal; font-weight: 400; letter-spacing: normal; orphans: 2; text-align: center; text-indent: 0px; text-transform: none; widows: 2; word-spacing: 0px; -webkit-text-stroke-width: 0px; white-space: normal; background-color: rgb(236, 236, 236); text-decoration-thickness: initial; text-decoration-style: initial; text-decoration-color: initial; float: none; display: inline !important;&quot;&gt;a&amp;gt;b&lt;/span&gt;" style="text;whiteSpace=wrap;html=1;" parent="1" vertex="1">
          <mxGeometry x="-42" y="132.0000244140625" width="55" height="36" as="geometry" />
        </mxCell>
        <mxCell id="RkNvBVMgayiWRNWPBS3Q-24" value="&lt;span style=&quot;color: rgb(0, 0, 0); font-family: Helvetica; font-size: 12px; font-style: normal; font-variant-ligatures: normal; font-variant-caps: normal; font-weight: 400; letter-spacing: normal; orphans: 2; text-align: center; text-indent: 0px; text-transform: none; widows: 2; word-spacing: 0px; -webkit-text-stroke-width: 0px; white-space: normal; background-color: rgb(236, 236, 236); text-decoration-thickness: initial; text-decoration-style: initial; text-decoration-color: initial; float: none; display: inline !important;&quot;&gt;a&amp;lt;=b&lt;/span&gt;" style="text;whiteSpace=wrap;html=1;" parent="1" vertex="1">
          <mxGeometry x="72" y="132.0000244140625" width="55" height="36" as="geometry" />
        </mxCell>
        <mxCell id="RkNvBVMgayiWRNWPBS3Q-25" value="&lt;span style=&quot;color: rgb(0, 0, 0); font-family: Helvetica; font-size: 12px; font-style: normal; font-variant-ligatures: normal; font-variant-caps: normal; font-weight: 400; letter-spacing: normal; orphans: 2; text-align: center; text-indent: 0px; text-transform: none; widows: 2; word-spacing: 0px; -webkit-text-stroke-width: 0px; white-space: normal; background-color: rgb(236, 236, 236); text-decoration-thickness: initial; text-decoration-style: initial; text-decoration-color: initial; float: none; display: inline !important;&quot;&gt;a-=b&lt;/span&gt;" style="text;whiteSpace=wrap;html=1;" parent="1" vertex="1">
          <mxGeometry x="-120" y="238.0000244140625" width="55" height="36" as="geometry" />
        </mxCell>
        <mxCell id="RkNvBVMgayiWRNWPBS3Q-26" value="&lt;div style=&quot;text-align: center;&quot;&gt;&lt;span style=&quot;background-color: transparent; color: light-dark(rgb(0, 0, 0), rgb(255, 255, 255));&quot;&gt;b-=a&lt;/span&gt;&lt;/div&gt;" style="text;whiteSpace=wrap;html=1;" parent="1" vertex="1">
          <mxGeometry x="158" y="222.0000244140625" width="55" height="36" as="geometry" />
        </mxCell>
        <mxCell id="RkNvBVMgayiWRNWPBS3Q-27" value="while(1)" style="text;html=1;align=center;verticalAlign=middle;whiteSpace=wrap;rounded=0;" parent="1" vertex="1">
          <mxGeometry x="83" y="309" width="60" height="30" as="geometry" />
        </mxCell>
        <mxCell id="RkNvBVMgayiWRNWPBS3Q-28" value="" style="endArrow=classic;html=1;rounded=0;fontSize=12;startSize=8;endSize=8;curved=1;exitX=0;exitY=0.5;exitDx=0;exitDy=0;entryX=0.04;entryY=0.635;entryDx=0;entryDy=0;entryPerimeter=0;" parent="1" source="RkNvBVMgayiWRNWPBS3Q-18" target="RkNvBVMgayiWRNWPBS3Q-2" edge="1">
          <mxGeometry width="50" height="50" relative="1" as="geometry">
            <mxPoint x="175" y="122" as="sourcePoint" />
            <mxPoint x="-135" y="15" as="targetPoint" />
            <Array as="points">
              <mxPoint x="-433" y="199" />
            </Array>
          </mxGeometry>
        </mxCell>
        <mxCell id="RkNvBVMgayiWRNWPBS3Q-29" value="" style="endArrow=classic;html=1;rounded=0;fontSize=12;startSize=8;endSize=8;curved=1;entryX=0.5;entryY=0;entryDx=0;entryDy=0;" parent="1" target="RkNvBVMgayiWRNWPBS3Q-1" edge="1">
          <mxGeometry width="50" height="50" relative="1" as="geometry">
            <mxPoint x="30" y="-281" as="sourcePoint" />
            <mxPoint x="-45" y="-301" as="targetPoint" />
          </mxGeometry>
        </mxCell>
      </root>
    </mxGraphModel>
  </diagram>
</mxfile>
